<svg width="29" height="28" viewBox="0 0 29 28" fill="none" xmlns="http://www.w3.org/2000/svg">
<path d="M25.9394 11.7151H24.9997V11.6666H14.4997V16.3333H21.0931C20.1312 19.0499 17.5464 21 14.4997 21C10.6339 21 7.49967 17.8657 7.49967 14C7.49967 10.1342 10.6339 6.99998 14.4997 6.99998C16.2841 6.99998 17.9075 7.67315 19.1436 8.77273L22.4435 5.47281C20.3598 3.5309 17.5727 2.33331 14.4997 2.33331C8.05676 2.33331 2.83301 7.55706 2.83301 14C2.83301 20.4429 8.05676 25.6666 14.4997 25.6666C20.9426 25.6666 26.1663 20.4429 26.1663 14C26.1663 13.2177 26.0858 12.4541 25.9394 11.7151Z" fill="#FFC107"/>
<path d="M4.17871 8.56973L8.01179 11.3808C9.04896 8.81298 11.5608 6.99998 14.5002 6.99998C16.2846 6.99998 17.908 7.67315 19.1441 8.77273L22.444 5.47281C20.3604 3.5309 17.5732 2.33331 14.5002 2.33331C10.019 2.33331 6.13288 4.86323 4.17871 8.56973Z" fill="#FF3D00"/>
<path d="M14.4995 25.6666C17.513 25.6666 20.2512 24.5134 22.3214 22.638L18.7106 19.5825C17.4999 20.5032 16.0205 21.0012 14.4995 21C11.465 21 8.88845 19.0651 7.91778 16.3648L4.11328 19.2961C6.04411 23.0743 9.96528 25.6666 14.4995 25.6666Z" fill="#4CAF50"/>
<path d="M25.9398 11.7151H25V11.6667H14.5V16.3334H21.0934C20.6333 17.6263 19.8045 18.756 18.7093 19.5831L18.7111 19.5819L22.3219 22.6374C22.0664 22.8696 26.1667 19.8334 26.1667 14C26.1667 13.2178 26.0862 12.4542 25.9398 11.7151Z" fill="#1976D2"/>
</svg>
