<svg width="131" height="44" viewBox="0 0 131 44" fill="none" xmlns="http://www.w3.org/2000/svg">
<mask id="mask0_9_188" style="mask-type:luminance" maskUnits="userSpaceOnUse" x="0" y="0" width="131" height="44">
<path d="M130.169 0.360474H0.00390625V43.2873H130.169V0.360474Z" fill="white"/>
</mask>
<g mask="url(#mask0_9_188)">
<path d="M58.9991 18.8173H49.3159V10.3962H43.1777V33.2569H49.3159V24.0988H58.9991V33.2569H65.1249V10.3962H58.9991V18.8173Z" fill="#EE2326"/>
<path d="M73.9627 19.1451C74.4771 16.059 76.1526 14.4469 78.869 14.4469C81.6163 14.4469 83.4826 16.3475 83.572 19.1451H73.9627ZM78.9029 9.7926C72.1487 9.7926 67.6182 14.541 67.6182 21.6636C67.6182 29.0716 72.0963 33.7792 79.0969 33.7792C84.69 33.7792 88.5245 31.1666 89.9628 26.2206H83.338C82.7373 28.0272 81.336 28.9336 79.2293 28.9336C76.0633 28.9336 74.1599 27.0235 73.9997 23.7022H89.9628C89.9628 22.8992 90.0089 22.617 90.0089 22.2344C90.0089 14.541 85.7217 9.7926 78.9029 9.7926Z" fill="#EE2326"/>
<path d="M100.442 10.1946C98.2707 10.6337 92.6992 12.3399 92.6992 20.9961V33.2498H98.9083V23.1288C98.9083 19.381 99.4195 17.6214 100.953 16.4861C101.893 15.7208 103.251 15.2975 104.828 15.2975C105.481 15.2975 105.761 15.3477 106.509 15.4856V10.2981C106.509 10.2981 104.033 9.47957 100.442 10.1946Z" fill="#EE2326"/>
<path d="M118.789 29.0162C115.518 29.0162 113.608 26.3127 113.608 21.7995C113.608 17.2393 115.478 14.5798 118.789 14.5798C122.05 14.5798 123.919 17.1923 123.919 21.7525C123.919 26.3629 122.05 29.0162 118.789 29.0162ZM118.789 9.7843C111.828 9.78731 107.35 14.4857 107.35 21.7995C107.35 29.0633 111.828 33.7709 118.789 33.7709C125.685 33.7709 130.168 29.0633 130.168 21.7995C130.168 14.4857 125.685 9.7843 118.789 9.7843Z" fill="#EE2326"/>
<path d="M26.3676 7.58342L16.7676 0.360474V20.9347L26.3676 14.1571V7.58342Z" fill="black"/>
<path d="M26.3676 37.0042V22.8719L16.7676 29.9005L26.3676 37.0042Z" fill="black"/>
<path d="M0.00390625 36.1781L9.607 43.2851V13.8632L0.00390625 6.64026V36.1781Z" fill="#EE2326"/>
</g>
</svg>
